<svg width="835" height="440" viewBox="0 0 835 440" fill="none" xmlns="http://www.w3.org/2000/svg">
<g clip-path="url(#clip0)">
<path fill-rule="evenodd" clip-rule="evenodd" d="M167 92C177.079 92 186.874 93.2221 196.249 95.5273L190.958 117.571C183.741 115.889 176.223 115 168.5 115C113.548 115 69 159.995 69 215.5C69 262.488 100.926 301.944 144.062 312.946L138.379 336.625C84.2513 323.621 44 274.549 44 216C44 147.517 99.069 92 167 92ZM259.343 256.562C244.753 289.442 213.179 312.959 175.896 315.727L170.338 339.955C220.163 338.617 262.601 307.408 280.676 263.444L259.343 256.562ZM261.023 178.457C252.8 157.521 237.814 140.039 218.787 128.761L223.989 106.084C249.748 119.685 270.135 142.219 281.102 169.606L261.023 178.457Z" fill="#9F9F9F"/>
<path d="M320.62 227.628C317.696 239.783 308.953 245.86 294.39 245.86C288.427 245.86 283.267 244.713 278.91 242.42C274.61 240.127 271.285 236.801 268.934 232.444C266.641 228.029 265.494 222.755 265.494 216.62C265.494 210.485 266.641 205.239 268.934 200.882C271.285 196.467 274.61 193.113 278.91 190.82C283.267 188.527 288.427 187.38 294.39 187.38C301.041 187.38 306.717 188.813 311.418 191.68C316.119 194.489 319.043 198.789 320.19 204.58L302.99 211.288C302.531 207.791 301.7 205.44 300.496 204.236C299.292 203.032 297.429 202.43 294.906 202.43C291.925 202.43 289.689 203.577 288.198 205.87C286.707 208.163 285.962 211.747 285.962 216.62C285.962 221.493 286.679 225.077 288.112 227.37C289.545 229.663 291.753 230.81 294.734 230.81C297.429 230.81 299.378 230.208 300.582 229.004C301.786 227.8 302.56 225.822 302.904 223.07L320.62 227.628ZM373.661 230.294V245H325.501V188.24H372.629V202.946H345.539V209.998H367.383V223.586H345.539V230.294H373.661ZM407.199 188.24C416.028 188.24 422.708 190.705 427.237 195.636C431.824 200.509 434.117 207.504 434.117 216.62C434.117 225.736 431.824 232.759 427.237 237.69C422.708 242.563 416.028 245 407.199 245H379.335V188.24H407.199ZM404.361 230.724C407.916 230.724 410.352 229.635 411.671 227.456C412.99 225.277 413.649 221.665 413.649 216.62C413.649 211.575 412.99 207.963 411.671 205.784C410.352 203.605 407.916 202.516 404.361 202.516H399.373V230.724H404.361ZM471.394 234.164H456.086L453.42 245H433.468L451.872 188.24H475.952L494.442 245H473.974L471.394 234.164ZM468.47 221.694L463.912 202.774H463.654L461.418 212.406L459.096 221.694H468.47ZM523.033 226.166H517.529V245H497.921V188.24H528.709C536.277 188.24 541.982 189.845 545.823 193.056C549.722 196.209 551.671 200.939 551.671 207.246C551.671 215.559 548.26 221.149 541.437 224.016L554.853 245H533.095L523.033 226.166ZM517.529 213.008H524.667C527.19 213.008 528.967 212.635 529.999 211.89C531.088 211.087 531.633 209.711 531.633 207.762C531.633 205.87 531.088 204.523 529.999 203.72C528.967 202.917 527.19 202.516 524.667 202.516H517.529V213.008Z" fill="#9F9F9F"/>
<path d="M633.378 227.628C630.454 239.783 621.71 245.86 607.148 245.86C601.185 245.86 596.025 244.713 591.668 242.42C587.368 240.127 584.042 236.801 581.692 232.444C579.398 228.029 578.252 222.755 578.252 216.62C578.252 210.485 579.398 205.239 581.692 200.882C584.042 196.467 587.368 193.113 591.668 190.82C596.025 188.527 601.185 187.38 607.148 187.38C613.798 187.38 619.474 188.813 624.176 191.68C628.877 194.489 631.801 198.789 632.948 204.58L615.748 211.288C615.289 207.791 614.458 205.44 613.254 204.236C612.05 203.032 610.186 202.43 607.664 202.43C604.682 202.43 602.446 203.577 600.956 205.87C599.465 208.163 598.72 211.747 598.72 216.62C598.72 221.493 599.436 225.077 600.87 227.37C602.303 229.663 604.51 230.81 607.492 230.81C610.186 230.81 612.136 230.208 613.34 229.004C614.544 227.8 615.318 225.822 615.662 223.07L633.378 227.628ZM665.349 187.38C674.408 187.38 681.46 189.96 686.505 195.12C691.608 200.223 694.159 207.389 694.159 216.62C694.159 225.851 691.608 233.046 686.505 238.206C681.46 243.309 674.408 245.86 665.349 245.86C659.386 245.86 654.226 244.713 649.869 242.42C645.569 240.127 642.244 236.801 639.893 232.444C637.6 228.029 636.453 222.755 636.453 216.62C636.453 210.485 637.6 205.239 639.893 200.882C642.244 196.467 645.569 193.113 649.869 190.82C654.226 188.527 659.386 187.38 665.349 187.38ZM665.349 202.43C662.425 202.43 660.275 203.577 658.899 205.87C657.58 208.106 656.921 211.689 656.921 216.62C656.921 221.551 657.58 225.163 658.899 227.456C660.275 229.692 662.425 230.81 665.349 230.81C668.273 230.81 670.394 229.692 671.713 227.456C673.032 225.163 673.691 221.551 673.691 216.62C673.691 211.689 673.032 208.106 671.713 205.87C670.394 203.577 668.273 202.43 665.349 202.43ZM720.949 245H700.911V188.24H720.949V245ZM785.106 245H763.434L749.846 219.2L746.75 212.234H746.578L746.922 223.93V245H729.55V188.24H751.222L764.81 214.126L767.906 221.006H768.078L767.734 209.31V188.24H785.106V245Z" fill="#07673C"/>
<path d="M211 67.7969L222.781 70.4998L153.164 373.974L141.5 371.573L211 67.7969Z" fill="#07673C"/>
<path d="M166 271.5L192.5 152.859L160 187.929L169 192.859L135.5 220.929L151.5 229.359L97.4999 268.359L166 271.5Z" fill="#07673C"/>
</g>
<defs>
<clipPath id="clip0">
<rect width="835" height="440" fill="white"/>
</clipPath>
</defs>
</svg>
